<svg id="visual" viewBox="0 0 900 600" width="900" height="600" xmlns="http://www.w3.org/2000/svg" xmlns:xlink="http://www.w3.org/1999/xlink" version="1.1"><rect width="900" height="600" fill="#f9f9f9"></rect><g><g transform="translate(797 88)"><path d="M101.3 -34.8C113.2 3.9 92.5 51.3 57.5 76C22.5 100.7 -26.8 102.6 -61 78.9C-95.3 55.2 -114.6 5.9 -101.9 -33.8C-89.2 -73.5 -44.6 -103.5 0 -103.5C44.7 -103.5 89.3 -73.5 101.3 -34.8Z" stroke="#e5e326" fill="none" stroke-width="20"></path></g><g transform="translate(58 243)"><path d="M76.5 -26.5C85.5 2.9 69.8 38.7 42.1 59.1C14.4 79.5 -25.3 84.5 -50.3 66.9C-75.3 49.3 -85.6 9.1 -74.8 -22.8C-64 -54.7 -32 -78.3 0.9 -78.6C33.7 -78.9 67.4 -55.9 76.5 -26.5Z" stroke="#e5e326" fill="none" stroke-width="20"></path></g><g transform="translate(627 561)"><path d="M98.6 -27.7C111.9 9 95.9 59.5 62.5 83.1C29.1 106.6 -21.8 103.3 -58 77.5C-94.3 51.7 -116 3.5 -103.9 -31.5C-91.8 -66.6 -45.9 -88.4 -1.6 -87.8C42.6 -87.3 85.3 -64.4 98.6 -27.7Z" stroke="#e5e326" fill="none" stroke-width="20"></path></g></g></svg>